<svg width="209" height="128" viewBox="0 0 209 128" fill="none" xmlns="http://www.w3.org/2000/svg">
<path d="M95.6562 34.5625C95.6562 38.125 95.1875 41.4062 94.25 44.4062C93.3125 47.4062 92.0938 50.2812 90.5938 53.0312C89.1562 55.7812 87.5938 58.5 85.9062 61.1875C84.2188 63.875 82.625 66.7188 81.125 69.7188C80.75 69.7188 80.4688 69.8125 80.2812 70C80.1562 70.1875 80.0312 70.4375 79.9062 70.75C79.8438 71 79.7188 71.25 79.5312 71.5C79.4062 71.6875 79.1562 71.7812 78.7812 71.7812C78.2188 73.1562 77.5 74.4688 76.625 75.7188C75.75 76.9062 74.8125 78.0938 73.8125 79.2812C72.875 80.4062 71.9375 81.5625 71 82.75C70.125 83.9375 69.3438 85.2188 68.6562 86.5938H67.7188C64.3438 91.4688 60.5312 95.8438 56.2812 99.7188C52.0938 103.594 47.5 107.062 42.5 110.125C42.375 110.5 42.1875 110.812 41.9375 111.062C41.6875 111.312 41.625 111.656 41.75 112.094C41.0625 112.469 40.4688 112.938 39.9688 113.5C39.5312 114.125 39.0938 114.75 38.6562 115.375C38.2188 116 37.75 116.594 37.25 117.156C36.8125 117.781 36.2188 118.25 35.4688 118.562C34.5312 118.375 33.625 118.219 32.75 118.094C31.9375 117.969 31.0938 117.875 30.2188 117.812C29.8438 117.812 29.4688 117.812 29.0938 117.812C28.7188 117.875 28.375 117.875 28.0625 117.812C27.375 117.688 26.7812 117.406 26.2812 116.969C25.8438 116.594 25.1875 116.406 24.3125 116.406C23.875 116.406 23.5312 116.438 23.2812 116.5C22.7812 115.625 22.1875 114.719 21.5 113.781C20.875 112.906 20.5625 111.938 20.5625 110.875C20.5625 110.062 20.6562 109.312 20.8438 108.625C21.0938 107.938 21.2188 107.219 21.2188 106.469C21.2188 104.969 20.9375 103.5 20.375 102.062C19.875 100.625 19.625 99.1562 19.625 97.6562C19.625 97.1562 19.6875 96.6875 19.8125 96.25C19.9375 95.75 20 95.25 20 94.75C20 94.1875 19.75 93.6875 19.25 93.25C19.3125 92.9375 19.4375 92.625 19.625 92.3125C19.8125 92 19.9062 91.6562 19.9062 91.2812C20.0312 90.7812 20.0625 90.25 20 89.6875C19.9375 89.0625 19.9062 88.5 19.9062 88C19.9062 86.6875 19.9688 85.375 20.0938 84.0625C20.2188 82.75 20.5 81.4688 20.9375 80.2188C20.875 79.8438 20.7812 79.5 20.6562 79.1875L20.2812 78.25C20.7188 76.9375 21 75.4688 21.125 73.8438C21.25 72.2188 21.3125 70.5938 21.3125 68.9688V64C21.3125 62.375 21.4062 60.8438 21.5938 59.4062C21.7188 58.7812 21.8438 58.1875 21.9688 57.625C22.1562 57 22.25 56.4062 22.25 55.8438C22.25 55.3438 22.1562 54.9062 21.9688 54.5312C21.7812 54.0938 21.5312 53.6875 21.2188 53.3125C21.6562 53.1875 21.9062 52.9375 21.9688 52.5625C22.0312 52.125 22.0625 51.75 22.0625 51.4375C22.0625 50.5625 21.9062 49.5938 21.5938 48.5312C21.8438 47.4688 22 46.4062 22.0625 45.3438C22.125 44.2188 22.1562 43.125 22.1562 42.0625C22.1562 38.3125 21.9062 34.625 21.4062 31C20.9688 27.375 20.6875 23.7188 20.5625 20.0312H20.2812C19.8438 20.0312 19.5 20.125 19.25 20.3125C19 20.5 18.75 20.7188 18.5 20.9688C18.25 21.1562 17.9688 21.3438 17.6562 21.5312C17.3438 21.6562 16.9688 21.6875 16.5312 21.625C15.7812 22.5 14.9062 23.25 13.9062 23.875C12.9688 24.5 11.9688 25.0625 10.9062 25.5625C9.84375 26.0625 8.75 26.5312 7.625 26.9688C6.5 27.3438 5.4375 27.7188 4.4375 28.0938C3.5625 27.7812 2.8125 27.2812 2.1875 26.5938C1.5625 25.8438 0.96875 25.0938 0.40625 24.3438C0.34375 24.0938 0.3125 23.8438 0.3125 23.5938V22.8438C0.3125 21.0938 0.71875 19.7812 1.53125 18.9062C2.34375 17.9688 3.21875 16.875 4.15625 15.625H4.625C4.9375 15.625 5.21875 15.6875 5.46875 15.8125C5.65625 15.9375 5.90625 16 6.21875 16H6.5C8.3125 14.5 10.2188 13.3125 12.2188 12.4375C14.2812 11.5 16.4062 10.7812 18.5938 10.2812C19.5312 9.34375 20.4688 8.625 21.4062 8.125C22.4062 7.625 23.5625 7.375 24.875 7.375C25.1875 7.375 25.5312 7.40625 25.9062 7.46875C26.3438 7.46875 26.7188 7.5 27.0312 7.5625C29.5938 6.375 32 5.375 34.25 4.5625C36.5625 3.6875 39.2188 3.25 42.2188 3.25C42.5938 3.25 42.8438 3.15625 42.9688 2.96875C43.1562 2.78125 43.3125 2.59375 43.4375 2.40625C43.5625 2.15625 43.6875 1.9375 43.8125 1.75C43.9375 1.5625 44.1562 1.46875 44.4688 1.46875C44.4688 1.59375 44.5 1.78125 44.5625 2.03125C44.625 2.28125 44.7812 2.40625 45.0312 2.40625C45.2812 2.40625 45.5 2.34375 45.6875 2.21875C45.9375 2.03125 46.2188 1.9375 46.5312 1.9375C46.8438 1.9375 47.0625 2.15625 47.1875 2.59375C47.875 2.15625 48.5312 1.75 49.1562 1.375C49.7812 1 50.4688 0.71875 51.2188 0.53125C52.1562 0.71875 53.0938 0.875 54.0312 1C55.0312 1.125 56.0312 1.1875 57.0312 1.1875C57.7812 1.1875 58.5312 1.15625 59.2812 1.09375C60.0312 0.96875 60.6875 0.65625 61.25 0.15625C61.5 0.09375 61.625 0.21875 61.625 0.53125C62.1875 1.03125 62.7812 1.375 63.4062 1.5625C64.0312 1.6875 64.6875 1.78125 65.375 1.84375C66.0625 1.84375 66.75 1.875 67.4375 1.9375C68.125 2 68.75 2.21875 69.3125 2.59375C69.8125 2.71875 70.2188 2.9375 70.5312 3.25C70.8438 3.5 71.25 3.71875 71.75 3.90625C72.125 4.03125 72.625 4.125 73.25 4.1875C73.9375 4.25 74.4375 4.375 74.75 4.5625C75.0625 4.6875 75.2188 4.90625 75.2188 5.21875C75.2812 5.46875 75.4688 5.6875 75.7812 5.875C76.3438 6.3125 77.0938 6.59375 78.0312 6.71875C78.9688 6.78125 79.7812 7.0625 80.4688 7.5625C80.7188 8.9375 81.4062 9.84375 82.5312 10.2812C83.6562 10.7188 84.75 11.1562 85.8125 11.5938C86.1875 11.9688 86.3125 12.4062 86.1875 12.9062C86.9375 13.4688 87.5938 14.0938 88.1562 14.7812C88.7812 15.4688 89.3438 16.2188 89.8438 17.0312C90.4062 17.7812 90.9375 18.5312 91.4375 19.2812C91.9375 20.0312 92.5312 20.7188 93.2188 21.3438C93.1562 21.9062 93.2188 22.3438 93.4062 22.6562C93.6562 22.9688 93.7188 23.4375 93.5938 24.0625C94.3438 24.75 95.0312 25.6562 95.6562 26.7812C95.2812 27.3438 95.0938 27.9688 95.0938 28.6562C95.0938 29.2812 95.1875 29.9062 95.375 30.5312C95.5625 31.1562 95.6562 31.7812 95.6562 32.4062V34.5625ZM86.9375 32.5C86.9375 30.6875 86.5938 28.9375 85.9062 27.25C85.2188 25.5 84.625 23.7812 84.125 22.0938C83.3125 22.0938 82.7812 21.8125 82.5312 21.25C82.3438 20.625 81.9688 20.0938 81.4062 19.6562C80.2188 19.4062 79.4688 18.5 79.1562 16.9375C77.9062 16.4375 76.625 15.875 75.3125 15.25C74 14.625 72.9062 13.75 72.0312 12.625C69.7812 11.9375 67.5 11.25 65.1875 10.5625C62.9375 9.8125 60.625 9.4375 58.25 9.4375C57.8125 9.4375 57.4062 9.46875 57.0312 9.53125C56.7188 9.53125 56.4062 9.53125 56.0938 9.53125C55.5938 9.53125 55.0625 9.625 54.5 9.8125C53.9375 10 53.4062 10.0938 52.9062 10.0938C52.3438 10.0938 51.7812 9.90625 51.2188 9.53125C49.9688 10.2188 48.5938 10.75 47.0938 11.125C45.6562 11.5 44.1875 11.8438 42.6875 12.1562C41.1875 12.4062 39.7188 12.75 38.2812 13.1875C36.8438 13.5625 35.5625 14.1562 34.4375 14.9688C34.0625 14.8438 33.6875 14.75 33.3125 14.6875C33 14.625 32.6875 14.5938 32.375 14.5938C31.8125 14.5938 31.375 14.7188 31.0625 14.9688C30.875 15.0938 30.75 15.25 30.6875 15.4375C30.6875 15.625 30.6562 15.8438 30.5938 16.0938C30.5938 16.2812 30.5312 16.4375 30.4062 16.5625C30.2812 16.6875 30.0312 16.7188 29.6562 16.6562C29.6562 16.9688 29.625 17.25 29.5625 17.5C29.5625 17.75 29.5625 18.0312 29.5625 18.3438C29.5625 19.9688 29.7188 21.5938 30.0312 23.2188C30.4062 24.7812 30.5938 26.375 30.5938 28C30.5938 28.5625 30.5625 29.1562 30.5 29.7812C30.4375 30.3438 30.3125 30.9062 30.125 31.4688C30.4375 32.2188 30.5938 33.0312 30.5938 33.9062C30.6562 34.7812 30.6875 35.6562 30.6875 36.5312C30.6875 37.4062 30.7188 38.2812 30.7812 39.1562C30.8438 39.9688 31.0625 40.75 31.4375 41.5C31.25 42.4375 31.125 43.375 31.0625 44.3125C31 45.25 30.9688 46.1875 30.9688 47.125C30.9688 49.3125 31.0625 51.4688 31.25 53.5938C31.5 55.7188 31.625 57.875 31.625 60.0625C31.625 60.625 31.5938 61.2188 31.5312 61.8438C31.5312 62.4688 31.5 63.0938 31.4375 63.7188C31.3125 64.5312 31.0938 65.3125 30.7812 66.0625C30.4688 66.8125 30.3125 67.625 30.3125 68.5C30.3125 69.0625 30.3438 69.6562 30.4062 70.2812C30.4688 70.8438 30.5 71.4375 30.5 72.0625C30.5 72.3125 30.4688 72.5625 30.4062 72.8125C30.4062 73 30.4062 73.2188 30.4062 73.4688C30.0938 75.6562 29.8438 77.875 29.6562 80.125C29.4688 82.375 29.375 84.5938 29.375 86.7812C29.375 88.8438 29.4375 90.9062 29.5625 92.9688C29.6875 94.9688 29.875 97 30.125 99.0625C29.875 99.5 29.75 100 29.75 100.562C29.75 101.438 29.9688 102.312 30.4062 103.188C30.8438 104.125 31.5 104.75 32.375 105.062C34.375 104.312 36.2188 103.312 37.9062 102.062C39.6562 100.875 41.4062 99.6562 43.1562 98.4062C43.5938 98.0938 44.25 97.6875 45.125 97.1875C46 96.625 46.5938 96.2188 46.9062 95.9688C47.2188 95.7188 47.4688 95.4688 47.6562 95.2188C47.9062 94.9062 48.1875 94.5938 48.5 94.2812L52.625 89.875C55 87.4375 57.3438 84.9688 59.6562 82.4688C62.0312 79.9688 64.2188 77.3125 66.2188 74.5C66.7812 73.625 67.3438 72.7812 67.9062 71.9688C68.4688 71.0938 69 70.1875 69.5 69.25C69.75 68.9375 69.9375 68.5938 70.0625 68.2188C70.1875 67.7812 70.4062 67.4062 70.7188 67.0938C70.9062 66.8438 71.125 66.5938 71.375 66.3438C71.6875 66.0938 71.9375 65.8438 72.125 65.5938C72.625 65.0312 73.0938 64.4688 73.5312 63.9062C74.0312 63.2812 74.5312 62.625 75.0312 61.9375C76.4062 59.9375 77.6875 57.9375 78.875 55.9375C80.0625 53.875 81.375 51.8438 82.8125 49.8438C82.9375 48.5938 83.1875 47.4375 83.5625 46.375C83.9375 45.25 84.3125 44.1875 84.6875 43.1875C85.0625 42.125 85.375 41.0312 85.625 39.9062C85.875 38.7812 85.9375 37.5312 85.8125 36.1562C86.125 35.7188 86.375 35.4062 86.5625 35.2188C86.8125 35.0312 86.9375 34.6562 86.9375 34.0938V32.5ZM208.344 103.844C208.219 105.094 207.781 106.062 207.031 106.75C206.281 107.5 205.312 107.875 204.125 107.875C203.5 107.875 202.906 107.781 202.344 107.594C201.156 108.531 199.75 109.25 198.125 109.75C196.5 110.25 194.969 110.75 193.531 111.25C191.781 111.188 190.062 111.031 188.375 110.781C186.688 110.531 184.938 110.469 183.125 110.594C182.5 110.156 181.844 109.875 181.156 109.75C180.469 109.625 179.75 109.531 179 109.469C178.312 109.469 177.625 109.375 176.938 109.188C176.312 109 175.688 108.562 175.062 107.875H170.375C169.938 107.875 169.281 107.656 168.406 107.219C167.594 106.844 166.656 106.438 165.594 106C164.594 105.562 163.5 105.156 162.312 104.781C161.188 104.406 160.125 104.219 159.125 104.219H158.562C157.875 103.656 157.062 103.219 156.125 102.906C155.25 102.656 154.344 102.406 153.406 102.156C152.469 101.969 151.562 101.75 150.688 101.5C149.812 101.25 149.062 100.906 148.438 100.469C147.812 100.031 147.094 99.5938 146.281 99.1562C145.469 98.6562 144.625 98.4375 143.75 98.5C142.562 97.8125 141.312 97.2188 140 96.7188C138.75 96.2188 137.469 95.75 136.156 95.3125L132.312 93.9062C131.062 93.4062 129.812 92.8125 128.562 92.125C128.375 92.1875 128.156 92.1875 127.906 92.125C127.656 92.0625 127.438 92.0312 127.25 92.0312C126.875 92.0312 126.656 92.1562 126.594 92.4062C126.156 91.9688 125.656 91.5938 125.094 91.2812C124.594 90.9688 124.094 90.5938 123.594 90.1562C123.344 90.2188 123.094 90.2812 122.844 90.3438C122.656 90.3438 122.406 90.3438 122.094 90.3438C121.531 90.3438 120.969 90.2812 120.406 90.1562C119.906 90.0312 119.406 89.875 118.906 89.6875C118.344 90.9375 117.969 92.3438 117.781 93.9062C117.594 95.4688 117.438 97.0938 117.312 98.7812C117.25 100.406 117.156 102.031 117.031 103.656C116.906 105.344 116.625 106.875 116.188 108.25C116.312 108.75 116.375 109.25 116.375 109.75V111.344C116.375 112.406 116.531 113.25 116.844 113.875C116.719 114.438 116.594 114.969 116.469 115.469C116.406 115.969 116.312 116.469 116.188 116.969C116.25 117.656 116.281 118.281 116.281 118.844C116.344 119.469 116.375 120.125 116.375 120.812V122.406C116.375 122.969 116.312 123.531 116.188 124.094C115.562 124.469 114.938 124.812 114.312 125.125C113.688 125.5 113.062 125.938 112.438 126.438C112 125.625 111.25 125.156 110.188 125.031C109.938 125.344 109.75 125.75 109.625 126.25C109.562 126.812 109.281 127.094 108.781 127.094C107.906 126.406 107.188 125.844 106.625 125.406C106.062 124.969 105.438 124.312 104.75 123.438C104.688 123.312 104.656 123.156 104.656 122.969C104.656 122.656 104.719 122.375 104.844 122.125C104.969 121.875 105.031 121.625 105.031 121.375C105.031 120.625 104.938 119.969 104.75 119.406C104.625 118.594 104.531 117.781 104.469 116.969C104.406 116.219 104.375 115.469 104.375 114.719C104.375 113.656 104.438 112.625 104.562 111.625C104.75 110.625 105.062 109.594 105.5 108.531C106.188 106.719 106.656 104.812 106.906 102.812C107.219 100.812 107.438 98.8125 107.562 96.8125C107.688 94.75 107.75 92.6875 107.75 90.625C107.812 88.5625 107.938 86.5938 108.125 84.7188C107.688 83.7188 107.156 82.9375 106.531 82.375C105.969 81.75 105.688 80.7812 105.688 79.4688C105.688 78.2812 106.062 77.375 106.812 76.75C107.562 76.0625 108.219 75.25 108.781 74.3125C108.656 73.9375 108.75 73.6875 109.062 73.5625L110.188 63.7188C110.25 63.0312 110.344 62.2812 110.469 61.4688C110.656 60.6562 110.781 59.9062 110.844 59.2188C110.969 57.7812 111.031 56.375 111.031 55C111.031 53.625 111.094 52.25 111.219 50.875C111.531 47.8125 111.812 44.7812 112.062 41.7812C112.375 38.7812 112.531 35.7812 112.531 32.7812C112.531 31.3438 112.469 29.9062 112.344 28.4688C112.281 27.0312 112.094 25.5938 111.781 24.1562C110.719 24.4688 109.531 24.8125 108.219 25.1875C106.969 25.5 105.906 26.0625 105.031 26.875H104.281C102.656 26.875 101.125 27.1875 99.6875 27.8125C98.3125 28.4375 96.9062 29.0312 95.4688 29.5938C94.8438 29.9062 94.2188 30.125 93.5938 30.25C92.9688 30.3125 92.3125 30.4375 91.625 30.625C91.3125 30.6875 90.9688 30.875 90.5938 31.1875C90.2188 31.5 89.875 31.7188 89.5625 31.8438L87.9688 32.2188C87.5312 32.3438 87.3438 32.625 87.4062 33.0625C87.4688 33.5 87.3125 33.7812 86.9375 33.9062C86.625 34.2188 86.1875 34.375 85.625 34.375C85.0625 34.3125 84.625 34.2812 84.3125 34.2812H83.9375C82.375 35.4062 80.875 36.375 79.4375 37.1875C77.9375 37.9375 76.1875 38.4375 74.1875 38.6875L72.125 40C71.4375 40.4375 70.6562 40.6562 69.7812 40.6562C69.0938 40.6562 68.5312 40.5312 68.0938 40.2812C67.5938 39.5312 67.2188 38.6875 66.9688 37.75C66.6562 36.8125 66.1562 36 65.4688 35.3125C65.7812 35 66 34.5938 66.125 34.0938C66.1875 33.5312 66.2812 33.0312 66.4062 32.5938C68.2812 31.7812 70.1875 31 72.125 30.25C74 29.5 75.8125 28.5938 77.5625 27.5312C77.75 27.5938 78.0312 27.625 78.4062 27.625C79.0312 27.625 79.5938 27.5312 80.0938 27.3438C80.5938 27.1562 81.0938 26.9375 81.5938 26.6875C82.0938 26.4375 82.5938 26.2188 83.0938 26.0312C83.5938 25.8438 84.1875 25.7812 84.875 25.8438C87 24.6562 89.25 23.6875 91.625 22.9375C94 22.1875 96.25 21.1562 98.375 19.8438C98.6875 19.8438 98.9375 19.9062 99.125 20.0312C99.375 20.1562 99.625 20.2188 99.875 20.2188C100.125 20.2188 100.281 20.1875 100.344 20.125C100.719 19.625 101.219 19.2812 101.844 19.0938C102.469 18.8438 103.094 18.6562 103.719 18.5312C104.406 18.3438 105.031 18.125 105.594 17.875C106.219 17.5625 106.625 17.0938 106.812 16.4688C107.125 16.7188 107.594 16.8438 108.219 16.8438C109.281 16.8438 110.25 16.625 111.125 16.1875C112.062 15.75 113.062 15.5312 114.125 15.5312C114.375 15.5312 114.594 15.5938 114.781 15.7188C115.031 15.7812 115.281 15.8125 115.531 15.8125C116.031 15.8125 116.281 15.6562 116.281 15.3438C116.344 15.0312 116.531 14.75 116.844 14.5C120.656 13.8125 124.438 13.1875 128.188 12.625C132 12.0625 135.844 11.7812 139.719 11.7812C140.281 11.4062 140.906 11.2188 141.594 11.2188C142.281 11.2188 142.906 11.4062 143.469 11.7812C144.531 11.6562 145.594 11.5625 146.656 11.5C147.719 11.4375 148.781 11.4062 149.844 11.4062C152.281 11.4062 154.781 11.5625 157.344 11.875C159.906 12.1875 162.438 12.6875 164.938 13.375C167.5 14 169.938 14.875 172.25 16C174.562 17.0625 176.719 18.3438 178.719 19.8438C178.906 20.4062 179.156 20.9688 179.469 21.5312C179.781 22.0938 180.188 22.5312 180.688 22.8438C180.688 22.9688 180.656 23.0625 180.594 23.125C180.594 23.1875 180.594 23.2812 180.594 23.4062C180.594 24.0938 180.781 24.75 181.156 25.375C181.594 26 181.812 26.75 181.812 27.625C181.812 28.5 181.656 29.375 181.344 30.25C181.094 31.125 181 32 181.062 32.875C180.375 33.875 179.781 34.7812 179.281 35.5938C178.844 36.4062 178.562 37.4375 178.438 38.6875C177.312 39.8125 176.312 41.0625 175.438 42.4375C174.562 43.75 173.656 45.0625 172.719 46.375C171.844 47.625 170.844 48.7812 169.719 49.8438C168.594 50.9062 167.25 51.75 165.688 52.375C165.625 53 165.375 53.6875 164.938 54.4375H162.969C162.781 54.9375 162.469 55.3125 162.031 55.5625L160.719 56.3125C160.281 56.5625 159.906 56.875 159.594 57.25C159.344 57.625 159.219 58.1562 159.219 58.8438C159.094 58.7812 158.938 58.75 158.75 58.75C158.125 58.75 157.375 59.0625 156.5 59.6875C155.688 60.3125 155.031 60.8125 154.531 61.1875C153.469 61.9375 152.375 62.625 151.25 63.25C150.188 63.875 149.25 64.75 148.438 65.875C145.938 66.9375 143.562 68.1875 141.312 69.625C139.062 71 136.625 72.0938 134 72.9062C133 73.9688 131.812 74.8125 130.438 75.4375C129.125 76 127.844 76.625 126.594 77.3125V77.5938C126.594 78.0938 126.781 78.5938 127.156 79.0938C127.531 79.5312 127.969 79.9375 128.469 80.3125C128.969 80.625 129.5 80.8438 130.062 80.9688C130.688 81.0938 131.219 81.0938 131.656 80.9688C132.906 82.0938 134.344 83 135.969 83.6875C137.594 84.375 139.281 85 141.031 85.5625C142.781 86.125 144.5 86.7188 146.188 87.3438C147.875 87.9688 149.438 88.75 150.875 89.6875H153.125C154.562 90.9375 156.25 91.875 158.188 92.5C160.188 93.125 162.094 93.6875 163.906 94.1875C164.656 94.875 165.594 95.4062 166.719 95.7812C167.906 96.0938 169.031 96.25 170.094 96.25H170.656C170.906 96.25 171.125 96.2188 171.312 96.1562V96.3438C171.312 96.6562 171.406 96.875 171.594 97C171.781 97.0625 171.969 97.125 172.156 97.1875C172.406 97.1875 172.625 97.25 172.812 97.375C173.062 97.4375 173.25 97.5625 173.375 97.75H174.312C175.625 97.75 176.875 98.0312 178.062 98.5938C179.25 99.0938 180.5 99.3438 181.812 99.3438C182.375 99.3438 182.812 99.2812 183.125 99.1562C183.5 99.2812 183.781 99.5312 183.969 99.9062C184.156 100.281 184.406 100.594 184.719 100.844C185.156 100.781 185.562 100.719 185.938 100.656C186.312 100.656 186.688 100.656 187.062 100.656C188.438 100.656 189.719 100.812 190.906 101.125C192.094 101.438 193.312 101.906 194.562 102.531C196.562 101.656 198.531 100.938 200.469 100.375C202.406 99.8125 204.469 99.5312 206.656 99.5312V99.7188C206.656 100.469 206.844 101.156 207.219 101.781C207.656 102.469 208.031 103.156 208.344 103.844ZM172.438 29.0312C172.438 28.2812 172.281 27.6875 171.969 27.25C171.719 26.8125 171.375 26.4375 170.938 26.125C170.5 25.75 170.031 25.4062 169.531 25.0938C169.094 24.7812 168.688 24.375 168.312 23.875C166.688 23.375 165.094 22.8125 163.531 22.1875C161.969 21.5625 160.375 21.0312 158.75 20.5938C157.938 20.4062 157.125 20.25 156.312 20.125C155.5 19.9375 154.688 19.8438 153.875 19.8438H151.812C151.438 19.7812 151.031 19.7188 150.594 19.6562C150.219 19.5312 149.844 19.4375 149.469 19.375C148.594 19.25 147.719 19.1562 146.844 19.0938C146.031 19.0312 145.188 19 144.312 19C142.688 19 141.062 19.0625 139.438 19.1875L134.562 19.5625C133.875 19.625 133.156 19.6562 132.406 19.6562C131.656 19.6562 130.969 19.7188 130.344 19.8438C130.031 19.9062 129.594 20.0625 129.031 20.3125C128.469 20.5 127.875 20.7188 127.25 20.9688C126.625 21.1562 126 21.375 125.375 21.625C124.812 21.875 124.312 22.0625 123.875 22.1875C123.938 22.625 123.969 23.0625 123.969 23.5V24.7188C123.969 25.6562 123.938 26.5938 123.875 27.5312C123.812 28.4688 123.688 29.4062 123.5 30.3438C123.438 30.7188 123.344 31.0938 123.219 31.4688C123.094 31.8438 123 32.2188 122.938 32.5938C122.812 33.1562 122.75 33.7812 122.75 34.4688V36.25C122.625 37.6875 122.531 39.0938 122.469 40.4688C122.406 41.8438 122.312 43.25 122.188 44.6875C121.812 48.8125 121.406 52.9062 120.969 56.9688C120.594 61.0312 120.344 65.125 120.219 69.25C122.281 68.8125 124.25 68.1562 126.125 67.2812C128 66.4062 129.844 65.4688 131.656 64.4688C133.469 63.4062 135.281 62.375 137.094 61.375C138.906 60.375 140.812 59.5312 142.812 58.8438C143.312 58.1562 143.906 57.5938 144.594 57.1562C145.344 56.7188 145.969 56.1562 146.469 55.4688C147.094 55.4688 147.562 55.3438 147.875 55.0938C148.188 54.7812 148.594 54.5625 149.094 54.4375C152.094 51.8125 155.156 49.3438 158.281 47.0312C161.406 44.7188 164.406 42.25 167.281 39.625C167.531 38.75 167.938 37.9062 168.5 37.0938C169.125 36.2188 169.719 35.3438 170.281 34.4688C170.844 33.5938 171.344 32.7188 171.781 31.8438C172.219 30.9688 172.438 30.0312 172.438 29.0312Z" fill="black"/>
</svg>
